<svg width="16" height="16" viewBox="0 0 16 16" version="1.1" xmlns="http://www.w3.org/2000/svg" xmlns:xlink="http://www.w3.org/1999/xlink">
<title>Exclude</title>
<desc>Created using Figma</desc>
<g id="Canvas" transform="translate(178 -2493)">
<g id="Exclude">
<use xlink:href="#path0_fill" transform="translate(-177.999 2493.14)" fill="#DADADA"/>
</g>
</g>
<defs>
<path id="path0_fill" fill-rule="evenodd" d="M 8.33627 0.0244141L 8.27142 0.0166016C 8.22551 0.0107422 8.17955 0.00488281 8.13324 0.00195312C 8.1136 0.000732422 8.0939 0 8.07411 0C 8.04828 0 8.02301 0.00634766 7.99747 0.00732422C 7.97639 0.00683594 7.95544 0.00537109 7.93446 0.00390625C 7.90962 0.00195312 7.88475 0 7.85965 0C 3.52589 0 0 3.52612 0 7.85962C 0 12.1936 3.52589 15.7192 7.85965 15.7192C 7.90596 15.7192 7.95143 15.7131 7.99719 15.7122C 8.00899 15.7126 8.02068 15.7141 8.03235 15.7156L 8.05576 15.7183C 8.06186 15.7188 8.06796 15.7192 8.07411 15.7192C 8.09769 15.7192 8.12114 15.7183 8.1445 15.7166L 8.16632 15.7146L 8.21184 15.7102C 8.23628 15.7075 8.26067 15.7043 8.28505 15.7012L 8.33627 15.6948C 12.448 15.4468 15.7193 12.033 15.7193 7.85962C 15.7193 3.68652 12.448 0.272949 8.33627 0.0244141ZM 5.50681 1.40234C 4.71074 2.32129 4.064 3.64087 3.70891 5.19946C 2.60463 5.07959 1.93825 4.93994 1.66962 4.87549C 2.45 3.26416 3.82582 2.0188 5.50681 1.40234ZM 3.81081 10.9526C 2.86821 11.0513 2.23045 11.166 1.87453 11.2417C 2.68253 12.665 3.97014 13.7549 5.50737 14.3174C 4.78484 13.4844 4.18161 12.3247 3.81081 10.9526ZM 0.979095 7.85962C 0.979095 7.13867 1.09137 6.4436 1.2977 5.79077C 1.4852 5.84131 2.20212 6.01831 3.52899 6.16577C 3.4498 6.72681 3.40974 7.29297 3.40913 7.85962C 3.40913 8.60132 3.48015 9.31299 3.60085 9.98926C 2.4626 10.1128 1.76141 10.2583 1.44675 10.3345C 1.13884 9.54565 0.980255 8.7063 0.979095 7.85962ZM 4.70653 10.8689C 5.21487 12.8376 6.45502 14.2983 7.29712 14.6509L 7.29712 10.7659C 6.45502 10.7759 5.43747 10.8147 4.70653 10.8689ZM 7.29712 9.78735C 6.45502 9.79785 5.30891 9.84106 4.52744 9.90186C 4.41992 9.25342 4.38933 8.56738 4.38933 7.85962C 4.38933 7.30957 4.39999 6.77393 4.46652 6.25659C 5.26007 6.31958 6.45502 6.36475 7.29712 6.37598L 7.29712 9.78735ZM 4.60126 5.28638C 5.3541 5.34399 6.45502 5.38672 7.29712 5.39697L 7.29712 1.06885C 6.45502 1.44727 5.07143 3.09839 4.60126 5.28638ZM 14.0244 4.82153C 13.8709 4.86865 13.2488 5.04224 12.0185 5.18799C 11.7409 3.71143 11.2399 2.45337 10.5864 1.54492C 12.0845 2.19409 13.3027 3.36304 14.0244 4.82153ZM 11.111 5.28491C 10.6498 3.06958 9.26202 1.40356 8.41992 1.0542L 8.41992 5.39722C 9.26202 5.38672 10.3702 5.34399 11.111 5.28491ZM 8.41992 6.37573C 9.26202 6.36475 10.4424 6.3186 11.2261 6.25342C 11.2907 6.77148 11.3069 7.30811 11.3069 7.85962C 11.3069 8.56812 11.2817 9.25513 11.1773 9.90454C 10.4056 9.84229 9.26202 9.79736 8.41992 9.78711L 8.41992 6.37573ZM 8.41992 10.7659L 8.41992 14.6653C 9.26202 14.3396 10.5089 12.8665 11.0086 10.8711C 10.2872 10.8157 9.26202 10.7759 8.41992 10.7659ZM 10.5864 14.1748C 11.1753 13.3564 11.6443 12.2576 11.9337 10.9673C 12.9016 11.0786 13.5113 11.2085 13.8187 11.2859C 13.0785 12.5703 11.9455 13.583 10.5864 14.1748ZM 12.1667 6.15527C 12.3144 7.43408 12.2946 8.72705 12.1078 10.0007C 13.3025 10.1411 13.9823 10.3098 14.2526 10.3887C 14.5642 9.60498 14.7411 8.75317 14.7411 7.85962C 14.7407 6.97656 14.7271 6.5481 14.3938 5.73022C 14.3495 5.74585 13.6797 5.97363 12.1667 6.15527Z"/>
</defs>
</svg>
